<?xml version="1.0" encoding="utf-8"?>
<!-- Generator: Adobe Illustrator 21.0.1, SVG Export Plug-In . SVG Version: 6.00 Build 0)  -->
<svg version="1.1" id="Layer_1" xmlns="http://www.w3.org/2000/svg" xmlns:xlink="http://www.w3.org/1999/xlink" x="0px" y="0px"
	 width="16px" height="10px" viewBox="0 0 8 5" style="enable-background:new 0 0 8 5;" xml:space="preserve">
<style type="text/css">
	.st0{fill:#861F41;}
</style>
<g>
	<path class="st0" d="M7.9,1.3L4.2,4.9C4.2,5,4.1,5,4,5C3.9,5,3.8,5,3.8,4.9L0.1,1.3C0,1.3,0,1.2,0,1.1C0,1,0,1,0.1,0.9l0.8-0.8
		C1,0,1.1,0,1.1,0c0.1,0,0.2,0,0.2,0.1L4,2.7l2.6-2.6C6.7,0,6.8,0,6.9,0C6.9,0,7,0,7.1,0.1l0.8,0.8C8,1,8,1,8,1.1
		C8,1.2,8,1.3,7.9,1.3z"/>
</g>
</svg>
